<svg width="512" height="512" xmlns="http://www.w3.org/2000/svg">

 <g>
  <title>background</title>
  <rect fill="none" id="canvas_background" height="514" width="514" y="-1" x="-1"/>
 </g>
 <g>
  <title>Layer 1</title>
  <g id="svg_9">
   <g stroke="null" id="svg_1" fill="#000000" transform="matrix(0.7929777475613519,0,0,0.7929777475613519,10.658053671816305,-4.142772512715883) ">
    <svg stroke="null" fill="#396849" id="svg_3" viewBox="0 0 893.821 347.927" y="-28.006304" x="17.931718" xmlns:xlink="http://www.w3.org/1999/xlink">
     <path stroke="null" fill="#396849" id="svg_4" d="m849.339,29.883l-744.725,0l-84.944,84.944l-0.005,119.014l92.437,84.203l739.11,0c18.709,0 22.455,-22.455 22.455,-22.455l0,-241.377c0,-20.583 -24.328,-24.329 -24.328,-24.329zm-767.674,167.081c-12.703,0 -23,-10.298 -23,-23s10.297,-23 23,-23s23,10.298 23,23s-10.297,23 -23,23z"/>
    </svg>
   </g>
   <g stroke="null" id="svg_7" fill="#000000" transform="matrix(0.7929777475613519,0,0,0.7929777475613519,10.658053671816305,-4.142772512715883) ">
    <svg stroke="null" fill="#619E73" id="svg_6" viewBox="0 0 893.821 347.927" y="135.563055" x="70.632787" xmlns:xlink="http://www.w3.org/1999/xlink">
     <path stroke="null" fill="#619E73" id="svg_5" d="m849.339,29.883l-744.725,0l-84.944,84.944l-0.005,119.014l92.437,84.203l739.11,0c18.709,0 22.455,-22.455 22.455,-22.455l0,-241.377c0,-20.583 -24.328,-24.329 -24.328,-24.329zm-767.674,167.081c-12.703,0 -23,-10.298 -23,-23s10.297,-23 23,-23s23,10.298 23,23s-10.297,23 -23,23z"/>
    </svg>
   </g>
  </g>
 </g>
</svg>